<svg width="105" height="68" viewBox="0 0 105 68" fill="none" xmlns="http://www.w3.org/2000/svg">
<path d="M8.22685 0.887207C12.5134 0.887207 16.1506 4.05175 16.1506 8.74473C16.1506 13.4377 12.5134 16.6023 8.22685 16.6023V0.887207ZM13.098 8.74473C13.098 5.66631 10.8681 3.68578 8.22685 3.68578C5.60726 3.68578 3.35571 5.66631 3.35571 8.74473C3.35571 11.8232 5.60726 13.8037 8.22685 13.8037C10.8681 13.8037 13.098 11.8232 13.098 8.74473Z" fill="#E8183D"/>
<path d="M18.3804 13.4591L20.6969 12.8348C20.9134 13.5668 21.4546 14.3202 22.5587 14.3202C23.2948 14.3202 24.0092 13.9542 24.0092 13.1577C24.0092 12.6195 23.6629 12.232 22.7752 11.9091L21.3897 11.3925C19.5278 10.7251 18.7484 9.54112 18.7484 8.18489C18.7484 6.18283 20.5237 4.97729 22.6453 4.97729C24.6804 4.97729 26.1742 6.11825 26.5422 7.84045L24.269 8.42169C23.9659 7.51754 23.3814 7.23768 22.7752 7.23768C22.0175 7.23768 21.5628 7.66823 21.5628 8.20641C21.5628 8.68002 21.8443 9.08904 22.7319 9.39043L23.9876 9.86403C25.3732 10.3592 26.8886 11.1772 26.8886 13.1577C26.8886 15.3966 24.9618 16.6021 22.602 16.6021C20.3721 16.6021 18.7268 15.5258 18.3804 13.4591Z" fill="white"/>
<path d="M28.7505 1.10254H31.6515V16.387H28.7505V1.10254Z" fill="white"/>
<path d="M33.5352 10.7897C33.5352 7.00088 36.5228 4.97729 39.4671 4.97729C42.3898 4.97729 45.3991 7.00088 45.3991 10.7897C45.3991 14.5785 42.3898 16.6021 39.4671 16.6021C36.5228 16.6021 33.5352 14.5785 33.5352 10.7897ZM42.5197 10.7897C42.5197 8.78766 41.0908 7.58212 39.4671 7.58212C37.8434 7.58212 36.3929 8.78766 36.3929 10.7897C36.3929 12.7918 37.8434 13.9973 39.4671 13.9973C41.0908 13.9973 42.5197 12.7918 42.5197 10.7897Z" fill="white"/>
<path d="M0 36.4724L2.40309 35.3745C2.83608 36.5586 3.81031 37.6134 5.36907 37.6134C6.58144 37.6134 7.62062 36.9891 7.62062 35.6544C7.62062 34.535 6.94948 34.0398 5.39072 33.4155L4.41649 33.0496C2.31649 32.21 0.584536 31.0475 0.584536 28.7226C0.584536 26.1608 2.72783 24.5677 5.32577 24.5677C7.96701 24.5677 9.56907 26.1823 10.2619 27.7969L8.05361 29.0239C7.40412 27.7969 6.55979 27.1941 5.43402 27.1941C4.3299 27.1941 3.50722 27.7323 3.50722 28.7441C3.50722 29.5406 3.96185 30.1649 5.65051 30.8107L6.68969 31.2197C9.37422 32.2961 10.7165 33.5017 10.7165 35.6759C10.7165 38.7759 7.98866 40.2828 5.41237 40.2828C2.72783 40.2828 0.541237 38.7113 0 36.4724Z" fill="white"/>
<path d="M27.5814 28.7439V31.4995C27.3216 31.4564 27.1051 31.4349 26.8453 31.4349C24.6587 31.4349 23.2948 32.9418 23.2948 35.1807V40.0674H20.3938V28.8731H23.2948V31.7793C23.6845 30.0571 24.7886 28.6578 26.8237 28.6578C27.0835 28.6578 27.3216 28.6794 27.5814 28.7439Z" fill="white"/>
<path d="M39.7485 35.5897H31.3269C31.7382 37.1181 33.0805 37.9147 34.7691 37.9147C35.8733 37.9147 36.8475 37.6133 37.6702 36.9029L38.9908 38.3021C38.0599 39.4646 36.4362 40.2827 34.4444 40.2827C31.3485 40.2827 28.5774 38.1945 28.5774 34.4703C28.5774 30.7029 31.3918 28.6578 34.2712 28.6578C37.1289 28.6578 40.3764 30.6599 39.7485 35.5897ZM31.2836 33.48H37.1722C36.999 31.887 35.6568 31.0904 34.2929 31.0904C32.9506 31.0904 31.6516 31.8654 31.2836 33.48Z" fill="white"/>
<path d="M41.1558 34.4703C41.1558 30.5953 43.9485 28.6578 46.5681 28.6578C48.5815 28.6578 49.8805 29.7557 50.1619 30.38H50.2269V28.8731H53.1279V40.0674H50.2269V38.5605H50.1619C49.8805 39.1848 48.5815 40.2827 46.5681 40.2827C43.9485 40.2827 41.1558 38.3452 41.1558 34.4703ZM50.2918 34.4703C50.2918 32.3606 48.7764 31.2411 47.1527 31.2411C45.529 31.2411 44.0135 32.3821 44.0135 34.4703C44.0135 36.5584 45.529 37.6994 47.1527 37.6994C48.7764 37.6994 50.2918 36.58 50.2918 34.4703Z" fill="white"/>
<path d="M72.8071 33.5661V40.0674H69.8844V33.6953C69.8844 32.1022 69.0618 31.2411 67.8061 31.2411C66.5288 31.2411 65.6195 32.1022 65.6195 33.6953V40.0674H62.7185V33.6953C62.7185 32.1022 61.8741 31.2411 60.6401 31.2411C59.3628 31.2411 58.4535 32.1022 58.4535 33.6953V40.0674H55.5525V28.8731H58.4535V30.3155C59.0597 29.3682 60.0989 28.6578 61.6793 28.6578C63.0649 28.6578 64.2772 29.2391 64.97 30.5307C65.6195 29.4974 66.8535 28.6578 68.6937 28.6578C71.0752 28.6578 72.8071 30.1432 72.8071 33.5661Z" fill="white"/>
<path d="M78.1115 28.873H75.2104V40.0673H78.1115V28.873Z" fill="white"/>
<path d="M91.1444 33.48V40.0674H88.2433V33.9536C88.2433 32.3175 87.3557 31.2411 85.8403 31.2411C84.3464 31.2411 83.4372 32.3175 83.4372 33.9536V40.0674H80.5361V28.8731H83.4372V30.4016C84.065 29.4113 85.1908 28.6578 86.8794 28.6578C89.1959 28.6578 91.1444 30.0787 91.1444 33.48Z" fill="white"/>
<path d="M105 28.8731V39.2278C105 43.5118 101.623 44.5451 99.068 44.5451C97.7691 44.5451 96.4701 44.2868 95.799 43.8562V41.5097C96.3186 41.8542 97.4443 42.134 98.5485 42.134C100.713 42.134 102.099 41.1222 102.099 39.4216V38.5605H101.969C101.688 39.1848 100.432 40.2827 98.4402 40.2827C95.8423 40.2827 93.0278 38.3452 93.0278 34.4703C93.0278 30.5953 95.8423 28.6578 98.4402 28.6578C100.432 28.6578 101.688 29.7557 101.969 30.38H102.099V28.8731H105ZM102.164 34.4703C102.164 32.3606 100.67 31.2411 99.0247 31.2411C97.401 31.2411 95.8856 32.3821 95.8856 34.4703C95.8856 36.5584 97.401 37.6994 99.0247 37.6994C100.67 37.6994 102.164 36.58 102.164 34.4703Z" fill="white"/>
<path d="M0.324707 56.1053C0.324707 51.3478 3.94017 48.2478 8.24842 48.2478C10.3484 48.2478 12.8598 48.9797 14.4835 51.563L12.3185 53.0484C11.3226 51.6276 9.82883 51.0464 8.33502 51.0464C5.60718 51.0464 3.35564 53.0054 3.35564 56.1053C3.35564 59.2268 5.62883 61.1643 8.35667 61.1643C9.89378 61.1643 11.3226 60.5831 12.3185 59.1622L14.4835 60.6476C12.8598 63.2309 10.3484 63.9629 8.24842 63.9629C3.91852 63.9629 0.324707 60.8629 0.324707 56.1053Z" fill="white"/>
<path d="M15.4795 58.1503C15.4795 54.3615 18.4671 52.3379 21.4115 52.3379C24.3341 52.3379 27.3434 54.3615 27.3434 58.1503C27.3434 61.9391 24.3341 63.9627 21.4115 63.9627C18.4671 63.9627 15.4795 61.9391 15.4795 58.1503ZM24.464 58.1503C24.464 56.1483 23.0352 54.9427 21.4115 54.9427C19.7877 54.9427 18.3372 56.1483 18.3372 58.1503C18.3372 60.1524 19.7877 61.3579 21.4115 61.3579C23.0352 61.3579 24.464 60.1524 24.464 58.1503Z" fill="white"/>
<path d="M46.4814 57.2462V63.7475H43.5588V57.3753C43.5588 55.7823 42.7361 54.9212 41.4804 54.9212C40.2031 54.9212 39.2938 55.7823 39.2938 57.3753V63.7475H36.3928V57.3753C36.3928 55.7823 35.5485 54.9212 34.3144 54.9212C33.0371 54.9212 32.1278 55.7823 32.1278 57.3753V63.7475H29.2268V52.5532H32.1278V53.9955C32.734 53.0483 33.7732 52.3379 35.3536 52.3379C36.7392 52.3379 37.9515 52.9191 38.6443 54.2108C39.2938 53.1775 40.5278 52.3379 42.368 52.3379C44.7495 52.3379 46.4814 53.8233 46.4814 57.2462Z" fill="white"/>
<path d="M60.8567 58.1503C60.8567 62.0253 58.0639 63.9627 55.4443 63.9627C53.4309 63.9627 52.1319 62.8648 51.8505 62.2405H51.7856V67.8377H48.8845V52.5532H51.7856V54.0601H51.8505C52.1319 53.4358 53.4309 52.3379 55.4443 52.3379C58.0639 52.3379 60.8567 54.2754 60.8567 58.1503ZM57.9773 58.1503C57.9773 56.0621 56.4618 54.9212 54.8598 54.9212C53.2144 54.9212 51.7206 56.0406 51.7206 58.1503C51.7206 60.26 53.2144 61.3794 54.8598 61.3794C56.4618 61.3794 57.9773 60.2385 57.9773 58.1503Z" fill="white"/>
<path d="M62.199 58.1503C62.199 54.2754 64.9918 52.3379 67.6113 52.3379C69.6248 52.3379 70.9237 53.4358 71.2052 54.0601H71.2701V52.5532H74.1711V63.7475H71.2701V62.2405H71.2052C70.9237 62.8648 69.6248 63.9627 67.6113 63.9627C64.9918 63.9627 62.199 62.0253 62.199 58.1503ZM71.3351 58.1503C71.3351 56.0406 69.8196 54.9212 68.1959 54.9212C66.5722 54.9212 65.0567 56.0621 65.0567 58.1503C65.0567 60.2385 66.5722 61.3794 68.1959 61.3794C69.8196 61.3794 71.3351 60.26 71.3351 58.1503Z" fill="white"/>
<path d="M87.2042 57.16V63.7475H84.3032V57.6337C84.3032 55.9976 83.4155 54.9212 81.9001 54.9212C80.4063 54.9212 79.497 55.9976 79.497 57.6337V63.7475H76.5959V52.5532H79.497V54.0816C80.1248 53.0914 81.2506 52.3379 82.9392 52.3379C85.2557 52.3379 87.2042 53.7587 87.2042 57.16Z" fill="white"/>
<path d="M100.605 52.5531L95.864 63.7474L94.1104 67.8376H91.2743L93.1145 63.6397L88.4382 52.5531H91.4042L94.5217 60.3245L97.6176 52.5531H100.605Z" fill="white"/>
<path d="M76.6608 23.9484L74.6101 25.9875L76.6608 28.0267L78.7115 25.9875L76.6608 23.9484Z" fill="white"/>
<path d="M8.21603 3.68578H8.22685V0.887207H8.21603C3.92943 0.887207 0.313965 4.05175 0.313965 8.74473C0.313965 13.4377 3.92943 16.6023 8.21603 16.6023H8.22685V13.8037H8.21603C5.59644 13.8037 3.34489 11.8232 3.34489 8.74473C3.34489 5.66631 5.59644 3.68578 8.21603 3.68578Z" fill="white"/>
<path d="M18.4237 37.4624V39.6797C17.9907 40.0672 17.168 40.1964 16.4536 40.1964C14.5484 40.1964 13.1629 39.2707 13.1629 36.9673V31.1764H11.5608V28.8729H13.1629V26.0098H16.0855V28.8729H18.402V31.1764H16.0855V36.4936C16.0855 37.0749 16.4103 37.6346 17.3629 37.6346C17.6226 37.6346 18.0123 37.5915 18.4237 37.4624Z" fill="white"/>
</svg>
