<svg width="32" height="28" viewBox="0 0 32 28" fill="none" xmlns="http://www.w3.org/2000/svg">
<path d="M30.7507 22.949H29.5606V10.4714C29.5606 10.2125 29.3507 10.0026 29.0918 10.0026C28.8328 10.0026 28.6229 10.2125 28.6229 10.4714V22.9491H27.5516V9.12742H29.6541C30.6979 9.12742 31.5471 8.27823 31.5471 7.23436V2.8858C31.5471 1.84199 30.6979 0.992737 29.6541 0.992737H20.9303C19.8864 0.992737 19.0372 1.84199 19.0372 2.8858C19.0373 3.8048 19.0368 7.16898 19.0377 7.25536H5.5547C4.94426 7.25536 4.44758 7.75205 4.44758 8.36248V14.6112C4.44758 14.8702 4.65745 15.08 4.91639 15.08C5.17533 15.08 5.3852 14.8702 5.3852 14.6112V8.36248C5.3852 8.26905 5.46126 8.19305 5.55464 8.19305H19.2988C19.9242 9.25336 21.0826 9.1183 21.119 9.12748L20.3964 10.5957C20.0411 11.3175 20.8389 12.054 21.5286 11.6592L25.9512 9.12748H26.6139V22.9491H23.0431L22.9508 21.5852C22.8692 20.3788 21.9854 19.3644 20.8015 19.1185L17.9753 18.5312V17.7979C18.7256 17.2341 19.2539 16.5791 19.3954 15.535C20.4182 15.1279 20.0888 13.9701 20.1475 13.6475V11.837C20.1475 10.7694 19.2791 9.88086 18.2118 9.85636C17.5461 9.84111 17.4376 9.24292 16.4146 9.24292H14.9326C13.2999 9.24292 11.9715 10.5712 11.9715 12.204V14.4275C11.9715 14.9294 12.2834 15.3598 12.7236 15.535C12.8598 16.5392 13.3569 17.1912 14.0836 17.7522V18.5312L11.2574 19.1185C10.0735 19.3645 9.1897 20.3788 9.10807 21.5852L9.01576 22.9491H5.38526V16.5104C5.38526 16.2515 5.17539 16.0416 4.91645 16.0416C4.65751 16.0416 4.44764 16.2515 4.44764 16.5104V22.949H3.3762V7.75905C3.3762 6.9398 4.0427 6.2733 4.86195 6.2733H17.6873C18.3072 6.2733 18.308 5.33567 17.6873 5.33567H4.86195C3.5257 5.33567 2.43858 6.4228 2.43858 7.75905V22.949H1.24839C-1.00398 22.949 -0.0786721 27.1851 2.98158 27.1851H29.0175C32.0769 27.1851 33.0056 22.949 30.7507 22.949ZM25.5936 8.25173L21.4189 10.6415C22.1526 9.00267 22.5067 8.79067 22.2704 8.41086C22.0499 8.05667 21.6603 8.23842 20.9303 8.18973C20.4034 8.18973 19.9749 7.76111 19.9749 7.23436V2.8858C19.9749 2.35899 20.4035 1.93042 20.9303 1.93042H29.6541C30.1809 1.93042 30.6094 2.35905 30.6094 2.8858V7.23442C30.6094 7.76123 30.1809 8.1898 29.6541 8.1898C25.5864 8.21155 25.7869 8.14105 25.5936 8.25173ZM12.9093 12.204C12.9093 11.0883 13.817 10.1806 14.9328 10.1806H16.4147C17.0827 10.1806 17.1832 10.7707 18.1904 10.7938C18.7526 10.8067 19.21 11.2747 19.21 11.8371V12.8944C19.0684 12.7989 18.9199 12.6786 18.786 12.5302C18.3153 12.0083 17.5643 11.8824 16.9594 12.2239C16.0627 12.7304 14.3894 13.4647 12.9094 12.9458V12.204H12.9093ZM13.6319 15.1401C13.6264 14.8852 13.4182 14.6813 13.1632 14.6813C12.7852 14.6813 12.9432 14.1494 12.9093 13.9244C14.6426 14.3762 16.4386 13.595 17.4205 13.0404C17.6402 12.9163 17.9153 12.9648 18.0897 13.1582C18.4653 13.5746 18.9113 13.8284 19.21 13.9653C19.1773 14.171 19.3289 14.6814 18.9561 14.6814C18.7011 14.6814 18.4929 14.8852 18.4874 15.1402C18.4671 16.087 17.9889 16.6583 17.2418 17.17C16.8941 17.4042 16.5085 17.5753 16.0597 17.5815C15.1343 17.5685 13.6636 16.616 13.6319 15.1401ZM17.0378 18.332V18.9132C17.0374 19.4688 16.5853 19.9207 16.0296 19.9207C15.4883 19.9207 15.0254 19.4884 15.0214 18.9098V18.3082C15.7023 18.5843 16.3701 18.5864 17.0378 18.332ZM10.0438 21.6484C10.0971 20.86 10.6746 20.1972 11.4483 20.0365L14.166 19.4718C14.7203 21.3156 17.3391 21.3147 17.8931 19.4718L20.6108 20.0365C21.3844 20.1972 21.962 20.86 22.0154 21.6484L22.1034 22.949H9.95576L10.0438 21.6484ZM19.8955 23.8867C19.8331 24.289 19.4854 24.5983 19.0659 24.5983H12.9333C12.5138 24.5983 12.1661 24.289 12.1036 23.8867H19.8955ZM29.0176 26.2474H2.98158C1.11358 26.2474 0.46939 23.8867 1.24839 23.8867H11.1602C11.2266 24.8071 11.9961 25.5359 12.9332 25.5359H19.0658C20.0029 25.5359 20.7724 24.8071 20.8388 23.8867H30.7506C31.5317 23.8867 30.8812 26.2474 29.0176 26.2474Z" fill="#E8183D"/>
</svg>
