<svg width="32" height="23" viewBox="0 0 32 23" fill="none" xmlns="http://www.w3.org/2000/svg">
<path d="M31.0602 0H0.93975C0.42075 0 0 0.42075 0 0.93975V18.2455C0 18.7645 0.42075 19.1852 0.93975 19.1852H12.6862V20.9054H10.151C9.632 20.9054 9.21125 21.3262 9.21125 21.8452C9.21125 22.3642 9.632 22.7849 10.151 22.7849H21.8489C22.3679 22.7849 22.7887 22.3642 22.7887 21.8452C22.7887 21.3262 22.3679 20.9054 21.8489 20.9054H19.3137V19.1852H31.0602C31.5792 19.1852 32 18.7645 32 18.2455V0.93975C32 0.42075 31.5792 0 31.0602 0ZM17.4342 20.9055H14.5658V19.1853H17.4342V20.9055ZM30.1205 17.3058H1.8795V1.87956H30.1205V17.3058Z" fill="#E8183D"/>
</svg>
